<?xml version="1.0" encoding="utf-8"?>
<!-- Generator: Adobe Illustrator 27.5.0, SVG Export Plug-In . SVG Version: 6.00 Build 0)  -->
<svg version="1.1" id="Layer_1" xmlns="http://www.w3.org/2000/svg" xmlns:xlink="http://www.w3.org/1999/xlink" x="0px" y="0px"
	 viewBox="0 0 3040.342 2000" style="enable-background:new 0 0 3040.342 2000;" xml:space="preserve">
<g>
	<rect x="0" y="0" style="fill:#FFFFFF;" width="3040.342" height="2000"/>
	<linearGradient id="SVGID_1_" gradientUnits="userSpaceOnUse" x1="124.0168" y1="954.1968" x2="2860.3516" y2="954.1968">
		<stop  offset="0" style="stop-color:#BCE3F1"/>
		<stop  offset="1" style="stop-color:#D0F7FF"/>
	</linearGradient>
	<path style="fill:url(#SVGID_1_);" d="M397.788,1821.988C72.926,1762.71-97.34,667.754,675.586,612.266
		s941.118-832.879,1660.784-392.043c800.442,490.315,552.721,1602.674,122.98,1602.674
		C2052.918,1822.896,397.788,1821.988,397.788,1821.988z"/>
	<g>
		<g>
			<path style="fill:#13375B;" d="M2760.207,1822.061c0-2.975-2.863-5.387-6.392-5.387H202.046c-4.212,0-7.628,2.412-7.628,5.387
				c0,2.976,3.415,5.388,7.628,5.388h2551.769C2757.344,1827.449,2760.207,1825.037,2760.207,1822.061L2760.207,1822.061z"/>
		</g>
		<g>
			<path style="fill:#F47458;" d="M1334.73,1816.675c-1-6.121-5.731-10.76-11.427-10.76h-208.91c-5.696,0-10.427,4.639-11.427,10.76
				H1334.73z"/>
			<path style="fill:#F48C7F;" d="M1177.348,1806.1l-63.916-0.17c0,0,12.539-25.87,34.987-38.388
				c22.448-12.519,61.232-12.251,61.232-12.251L1177.348,1806.1z"/>
			<path style="fill:#B75742;" d="M1222.69,1806.242c0,0,4.329-49.419-12.232-50.951s-33.11,50.809-33.11,50.809L1222.69,1806.242z"
				/>
		</g>
		<g>
			<path style="fill:#F48C7F;" d="M1480.553,1816.556c-0.735-25.374-22.703-45.735-49.716-45.735
				c-27.013,0-48.982,20.36-49.716,45.735H1480.553z"/>
			<path style="fill:#F47458;" d="M1486.755,1816.668c-0.491-6.081-2.822-10.689-5.628-10.689h-102.891
				c-2.805,0-5.135,4.608-5.628,10.689H1486.755z"/>
		</g>
		<g>
			<polygon style="fill:#184655;" points="683.033,1816.771 641.322,1816.771 630.051,1706.551 694.305,1706.551 			"/>
			<polygon style="fill:#184655;" points="2308.404,1816.771 2266.692,1816.771 2255.422,1706.551 2319.674,1706.551 			"/>
			<path style="fill:#13375B;" d="M1587.6,970.624h646.683c68.752,0,124.487,55.735,124.487,124.485v254.983h-895.657v-254.981
				C1463.113,1026.359,1518.848,970.624,1587.6,970.624z"/>
			<path style="fill:#355389;" d="M747.533,970.321h1380.35c79.71,0,144.33,64.618,144.33,144.331v315.232H603.202v-315.232
				C603.202,1034.94,667.821,970.321,747.533,970.321z"/>
			<polygon style="fill:#355389;" points="2358.434,1405.664 548.658,1405.636 548.539,1723.218 2358.434,1723.218 			"/>
			<path style="fill:#466EB6;" d="M599.803,1598.804H488.937c-35.705,0-64.649-28.945-64.649-64.649v-355.332
				c0-35.705,28.944-64.649,64.649-64.649h110.866c35.705,0,64.649,28.944,64.649,64.649v355.332
				C664.452,1569.859,635.508,1598.804,599.803,1598.804z"/>
			<path style="fill:#466EB6;" d="M2402.425,1597.417h-111.051c-35.654,0-64.557-28.903-64.557-64.557v-354.129
				c0-35.652,28.903-64.556,64.557-64.556h111.051c35.652,0,64.556,28.903,64.556,64.556v354.129
				C2466.981,1568.514,2438.077,1597.417,2402.425,1597.417z"/>
			<path style="fill:#466EB6;" d="M2354.911,1597.357H554.162c-36.93,0-66.867-29.936-66.867-66.867v-65.029
				c0-36.928,29.937-66.865,66.867-66.865h1800.749c36.931,0,66.867,29.937,66.867,66.865v65.029
				C2421.778,1567.421,2391.842,1597.357,2354.911,1597.357z"/>
		</g>
		<g>
			<path style="fill:#F48C7F;" d="M1215.666,890.323c-9.805-8.452-9.079,15.221-13.667,17.396
				c-7.87,3.727-4.556,18.223-8.698,22.365c-4.141,4.142-25.298,29.099-25.403,29.131c-9.388,2.761-62.401,190.794-70.132,194.108
				c-7.732,3.314-91.118-9.388-91.118-9.388l-19.88,72.343c0,0,153.519,28.163,165.668,10.491
				c7.943-11.554,27.314-119.314,39.802-197.688c3.761-18.343,8.662-36.009,14.316-41.841
				c13.254-13.667,19.673-25.264,21.744-36.861C1229.763,942.173,1227.677,900.677,1215.666,890.323z"/>
			<path style="fill:#F7A491;" d="M1580.965,1261.834l12.624,76.207c0,0-12.624,54.671-6.311,57.985
				c6.311,3.314,208.286,1.657,208.286,1.657s37.87-18.225,11.046-24.851c-26.825-6.626-133.072-32.029-140.436-45.282
				c-7.364-13.252-15.779-83.939-15.779-83.939L1580.965,1261.834z"/>
			<path style="fill:#F7A491;" d="M1612.442,1681.805l13.254,76.207c0,0-13.409,54.309-6.782,57.621
				c6.626,3.314,222.704,0.363,222.704,0.363s35.893-16.568,7.731-23.194c-28.165-6.627-139.715-32.029-147.446-45.282
				c-7.731-13.254-16.566-83.939-16.566-83.939L1612.442,1681.805z"/>
			<path style="fill:#B75742;" d="M850.418,1188.992l-86.972-146.61c0,0-205.541-7.13-208.732,13.667
				c-3.655,23.826,42.277,77.64,70.82,159.035c25.086,71.538,36.432,146.649,42.243,165.245
				c12.424,39.76,190.095-101.88,190.095-101.88L850.418,1188.992z"/>
			<path style="fill:#F7CC7F;" d="M1149.271,1241.676c0,0,32.428-3.374,57.283-20.982
				c95.821-67.883,291.985-256.428,346.247-231.385c5.727,2.645,17.454,8.431,23.193,14.082
				c62.755,61.773,114.312,287.435,114.312,287.435l-97.744,46.387l-62.954-203.772l-185.84,197.597L1149.271,1241.676z"/>
			<path style="fill:#FAE0B2;" d="M1059.909,1223.277l145.748-3.55c0,0,369.403,56.118,414.084,79.771
				c44.681,23.655,75.535,399.425,75.535,399.425l-87.804,13.254l-95.492-312.802l-297,7.885L1059.909,1223.277z"/>
			<path style="fill:#3C8F7C;" d="M807.93,1073.226c0,0,66.588,0,112.147,11.682c45.56,11.682,106.306,23.365,106.306,23.365
				l-17.524,92.288c0,0-94.624-16.356-99.297-16.356C904.89,1184.206,807.93,1073.226,807.93,1073.226z"/>
			<path style="fill:#50BFA5;" d="M726.112,1083.976c0,0-28.911,23.655-18.398,102.505
				c10.513,78.849,56.185,163.084,148.175,199.882c91.991,36.796,359.091,20.897,359.091,20.897l-9.255-190.571
				c0,0-135.1,1.386-164.011-1.242c-22.883-2.08-82.126-122.989-204.877-144.408C804.5,1065.397,767.763,1073.016,726.112,1083.976z
				"/>
			<path style="fill:#13375B;" d="M740.16,1026.277c0,0-20.407-16.914-35.081-23.489c-14.675-6.574-40.603-31.404-49.57-68.069
				c-8.967-36.665,12.665-60.659,25.802-70.32c13.138-9.66,68.317-30.458,90.207-28.424c21.892,2.034,39.136,75.745,39.136,75.745
				l-8.765,65.256L740.16,1026.277z"/>
			<path style="fill:#F7A491;" d="M806.898,1012.646l29.553,57.807c0,0,2.599,22.493-3.254,32.343
				c-10.073,16.95-80.004-24.493-80.004-24.493l-30.915-99.24L806.898,1012.646z"/>
			<path style="fill:#F47458;" d="M731.379,1008.276c28.016,33.445,70.526,38.444,90.67,34.003l-15.15-29.633l-84.62-33.584
				L731.379,1008.276z"/>
			<path style="fill:#F7A491;" d="M715.364,872.193c23.793-21.963,61.851-16.467,78.82,10.548
				c7.377,11.743,15.997,26.796,23.896,43.926c18.997,41.199,15.254,91.06-3.605,99.346c-18.858,8.284-82.787,4.296-110.572-53.835
				C686.748,936.289,690.397,895.24,715.364,872.193z"/>
			<path style="fill:#F7A491;" d="M719.846,970.736c4.024,9.161,1.214,19.256-6.278,22.546c-7.492,3.292-16.826-1.468-20.851-10.629
				c-4.024-9.161-1.214-19.255,6.277-22.546C706.486,956.816,715.822,961.575,719.846,970.736z"/>
			<path style="fill:#13375B;" d="M698.994,960.107c0,0-11.86-18.476-17.371-38.564c-5.51-20.088,0.166-53.388,18.303-64.956
				c18.137-11.566,66.904-21.568,68.076-36.331c1.173-14.762,1.649-13.512,2.935-16.239c2.931-6.212,37.509,1.776,48.768,35.062
				c11.258,33.286-18.135,43.179-23.402,46.26c-5.267,3.082-64.732,1.057-79.999,7.951
				C701.038,900.184,698.994,960.107,698.994,960.107z"/>
			<polygon style="fill:#F48C7F;" points="750.688,1318.548 851.445,1414.925 898.757,1335.197 815.523,1253.714 			"/>
			<path style="fill:#F7A491;" d="M960.526,1072.788c0,0-75.496,184.464-103.532,243.166c-28.037,58.701-18.017,90.427-5.549,98.971
				c9.615,6.59,60.454,12.267,94.625-53.446c34.17-65.71,43.369-262.406,53.007-262.406c9.638,0,28.595-29.88,29.79-32.418
				c7.257-15.426-11.795-52.081-11.795-52.081s41.831-49.907,35.888-57.875c-2.832-3.799-67.994,52.411-75.442,69.058
				S960.526,1072.788,960.526,1072.788z"/>
			<path style="fill:#3C8F7C;" d="M858.65,1290.275c0,0-36.205-218.329-132.538-206.299c-18.59,2.322-28.895,14.833-33.418,33.515
				c-18.917,78.121,74.287,253.409,74.287,253.409S853.393,1306.045,858.65,1290.275z"/>
			<path style="fill:#13375B;" d="M1177.769,945.78l6.917-21.852c2.965-0.58,5.491-0.422,6.958,1.044
				C1197.384,930.713,1181.563,944.173,1177.769,945.78z"/>
			<path style="fill:#F48C7F;" d="M1172.427,962.637c-0.828,2.617,1.938,5.69,6.188,6.867l1.318,0.365
				c-1.467,9.004-17.007,14.471-17.007,14.471s-16.012-38.658,0.555-50.528c0,0,12.475-8.167,21.206-9.882
				c2.965-0.58,5.491-0.422,6.958,1.044c5.74,5.74-10.081,19.201-13.875,20.808c-0.041,0.016-0.075,0.025-0.107,0.041
				c0,0-0.008,0.125-0.025,0.357L1172.427,962.637z"/>
			<path style="fill:#F47458;" d="M1181.014,947.065l-3.245-1.284c0,0-6.972,12.329-9.181,17.299
				c-2.208,4.97,15.324,10.492,20.295,9.112C1193.853,970.811,1181.014,947.065,1181.014,947.065z"/>
			<path style="fill:#13375B;" d="M1229.781,860.279l-34.443,108.729c-0.829,2.609-4.937,3.777-9.186,2.592
				c-0.083-0.022-8.042-2.235-7.538-2.095c-4.25-1.176-7.016-4.25-6.188-6.867c0.263-0.833-1.385,4.369,5.342-16.857
				c3.794-1.607,19.615-15.067,13.875-20.808c-1.467-1.466-3.993-1.624-6.958-1.044l22.183-70.02
				c0.828-2.609,4.937-3.769,9.178-2.592l7.547,2.095C1227.834,854.596,1230.609,857.67,1229.781,860.279z"/>
			<g>
				<path style="fill:#F48C7F;" d="M1228.92,902.334c0,0,6.307-9.526-0.414-14.496c-3.554-2.628-41.141,3.176-42.907,7.289
					C1180.762,906.397,1214.793,901.614,1228.92,902.334z"/>
			</g>
			<g>
				<path style="fill:#F48C7F;" d="M1232.233,913.309c0,0,2.74-7.755-0.414-12.839c-2.33-3.755-41.831,0.069-45.145,6.42
					C1181.001,917.763,1218.106,912.59,1232.233,913.309z"/>
			</g>
			<path style="fill:#F48C7F;" d="M1231.818,913.102c0,0-37.451-0.859-41.21,5.177c-3.758,6.037,16.36,7.663,16.36,7.663
				l19.673,31.477C1226.642,957.419,1239.005,919.406,1231.818,913.102z"/>
			<path style="fill:#F48C7F;" d="M1207.589,925.113c0,0-2.326,5.02-6.627,18.638c-9.94,31.477-6.282,32.375-2.968,33.824
				c3.313,1.45,23.884-16.429,26.99-17.257c3.106-0.828,10.768-39.554,5.592-53.221c-5.178-13.667-10.354-16.152-10.354-16.152
				L1207.589,925.113z"/>
		</g>
		<g>
			<path style="fill:#E83535;" d="M2123.373,266.438c-7.671,1.609-76.916,2.384-76.916,52.75s1.001,70.389-12.014,92.414
				c-13.015,22.025-16.64,115.18,37.948,88.699c14.605-7.085,4.525,45.453,4.525,45.453s93.681,42.047,119.711,31.036
				c26.03-11.013,66.075,14.016,66.075,14.016s39.824-63.734,0-103.559c-39.824-39.824-35.039-36.6-35.039-81.651
				c0-45.051-8.009-32.036-27.031-59.067C2181.611,319.497,2170.412,256.568,2123.373,266.438z"/>
			<polygon style="fill:#451B00;" points="2309.197,1070 2276.798,664.77 2251.16,672.374 2301.305,1070 			"/>
			<path style="fill:#F7A491;" d="M2030.481,1264.22c0,0,35.56,369.927,17.655,415.808
				c-17.905,45.883-47.138,124.745-47.138,124.745h32.891l67.212-89.298c0,0-1.613-4.113,3.981-22.018
				c5.597-17.905,45.883-210.381,31.335-301.025c-4.128-25.715-9.245-149.605-21.899-170.583
				C2082.566,1168.88,2030.481,1237.473,2030.481,1264.22z"/>
			<path style="fill:#00424C;" d="M2103.655,1698.296c0,0,8.295-3.402,15.671,13.953c7.375,17.355-13.46,103.327-13.46,103.327
				l-16.948,0.531c0,0,11.53-63.766,7.624-63.766c-3.904,0-22.772,64.903-32.317,67.507c-9.545,2.603-72.239,6.725-82.001-3.037
				s25.368-29.765,25.368-29.765s31.505,4.203,35.627,0.082C2047.341,1783.004,2103.655,1698.296,2103.655,1698.296z"/>
			<path style="fill:#F7A491;" d="M2158.654,1264.22c0,0,35.558,369.927,17.654,415.808
				c-17.905,45.883-47.138,124.745-47.138,124.745h32.892l67.21-89.298c0,0-1.613-4.113,3.983-22.018
				c5.594-17.905,45.88-210.381,31.332-301.025c-4.126-25.715-9.244-149.605-21.898-170.583
				C2210.739,1168.88,2158.654,1237.473,2158.654,1264.22z"/>
			<path style="fill:#F47458;" d="M2256.616,1302.975c-17.697-3.119-54.53-9.566-95.901-16.547
				c1.664,18.293,4.162,46.57,6.853,79.808c19.568,2.922,63.333,8.216,94.557,2.761
				C2260.594,1351.06,2258.833,1326.779,2256.616,1302.975z"/>
			<path style="fill:#F47458;" d="M2126.187,1280.66c-33.938-5.608-68.227-11.072-95.568-14.996
				c0.745,7.857,4.435,47.088,8.619,98.635c9.369,2.663,21.232,5.333,35.93,7.472c23.634,3.437,44.251,1.621,58.932-1.044
				C2132.054,1347.075,2129.6,1311.462,2126.187,1280.66z"/>
			<path style="fill:#F7CC7F;" d="M2289.208,1341.195c0-76.232,0-188.169,0-221.036c0-58.192-22.381-211.159-58.19-287.253
				c-35.811-76.096-183.525,0-183.525,0s-33.723,74.009-42.675,181.437l-8.588,333.004
				C2102.664,1363.881,2185.927,1365.177,2289.208,1341.195z"/>
			<path style="opacity:0.38;fill:#001C41;" d="M2289.208,1152.764l-52.892-19.524l-2.686,69.068c0,0,0.863,31.858,55.577,50.882
				V1152.764z"/>
			<path style="fill:#F7CC7F;" d="M2020.836,511.391c-3.521,6.257-24.866,59.12-19.308,115.263
				c8.304,83.885,44.834,190.415,36.791,223.934c-13.429,55.953,188.129,64.356,197.54-6.36
				c3.347-25.157-3.189-88.085,2.732-145.025c9.404-90.417,30.904-179.427,26.921-181.87
				C2177.276,463.214,2029.123,496.655,2020.836,511.391z"/>
			<path style="fill:#F0BA59;" d="M2117.071,530.945c0,0-4.833,40.102,25.649,70.584c26.94,26.941,67.769,44.945,104.47,32.32
				c9.859-63.698,21.322-114.677,18.321-116.518c-25.015-15.342-54.844-23.647-84.936-27.336l-68.459,4.437L2117.071,530.945z"/>
			<g>
				<path style="fill:#F0BA59;" d="M2032.062,785.451c3.905,19.111,6.733,35.879,7.299,48.746
					c13.202-2.155,27.045-3.466,37.737-2.198c22.982,2.725,113.088,7.841,159.255,7.368c0.839-10.968,0.493-26.808,0.113-45.266
					l-177.741-26.358L2032.062,785.451z"/>
			</g>
			<path style="fill:#F7CC7F;" d="M2265.511,517.332c0,0,19.221-1.119,36.846,91.202c17.625,92.322-11.856,205.626-31.527,215.698
				c-19.67,10.071-198.439-12.589-198.439-12.589l5.875-64.626c0,0,137.834-7.395,152.941-22.501
				c3.711-3.712-0.189-21.628,2.999-41.23C2243.993,623.101,2265.511,517.332,2265.511,517.332z"/>
			<path style="fill:#F0BA59;" d="M2295.404,576.885c-15.373-60.395-29.893-59.553-29.893-59.553s-12.592,61.891-22.891,117.926
				c6.396-1.75,12.691-4.387,18.793-8.025C2280.179,616.041,2290.128,595.511,2295.404,576.885z"/>
			<path style="fill:#F7A491;" d="M2238.59,715.655c0,0,19.844-10.881,27.677-18.715c7.833-7.833,22.94-17.905,22.94-11.75
				c0,6.154-7.274,14.281-7.274,14.281s27.138-15.12,30.214-12.043c3.078,3.077,4.477,22.381,0,43.084
				c-4.476,20.702-65.418,29.901-65.418,29.901L2238.59,715.655z"/>
			<path style="fill:#00424C;" d="M2231.827,1698.296c0,0,8.296-3.402,15.673,13.953c7.376,17.355-13.46,103.327-13.46,103.327
				l-16.948,0.531c0,0,11.529-63.766,7.624-63.766c-3.905,0-22.772,64.903-32.318,67.507c-9.544,2.603-72.237,6.725-82-3.037
				c-9.761-9.763,25.368-29.765,25.368-29.765s31.505,4.203,35.626,0.082C2175.513,1783.004,2231.827,1698.296,2231.827,1698.296z"
				/>
			<path style="fill:#7F3100;" d="M2261.413,511.519c-45.071,143.521-31.319,289.253-13.793,582.864l-8.445,0.706
				c-31.087-298.016-50.89-443.974-11.058-593.37L2261.413,511.519z"/>
			<path style="fill:#FAE0B2;" d="M1989.301,813.321c63.524,17.359,204.787-16.785,261.859-28.535l-13.429-73.857
				c0,0-167.463,28.487-187.83,16.738c-10.068-5.807-31.998-58.722-36.722-110.752c-4.833-53.225,7.656-105.524,7.656-105.524
				s-57.132,51.403-57.132,182.332C1963.704,793.629,1961.349,805.684,1989.301,813.321z"/>
			<path style="fill:#F7A491;" d="M2020.635,667.741c0,0,13.942,14.461,24.852,25.371c10.911,10.911,26.904,38.873,26.904,38.873
				s-22.66,3.003-30.494,3.003c-7.834,0-31.893-16.785-40.846-16.785s-5.037-12.869,5.595-9.512
				c10.631,3.357,21.261,5.595,21.261,5.595s-23.78-19.304-34.691-30.214c-10.911-10.911-0.534-17.269,8.394-8.342
				c8.927,8.927,19.023,14.497,19.023,14.497s-31.334-32.453-25.738-38.048C2000.492,646.583,2020.635,667.741,2020.635,667.741z"/>
			<path style="fill:#F7A491;" d="M2104.553,410.604l-10.909,79.392c0,0-33.496,106.245-8.851,115.254
				c24.645,9.01,60.158-113.03,60.158-113.03v-116.66L2104.553,410.604z"/>
			<path style="fill:#F47458;" d="M2144.951,443.935v-55.501l-31.573,14.515l-8.825,7.655l-9.463,68.87
				C2111.634,476.035,2129.678,462.603,2144.951,443.935z"/>
			<path style="fill:#F7A491;" d="M2095.44,291.723c0,0-33.142-14.73-44.191,51.558c-11.047,66.288,17.828,118.533,39.997,118.12
				c33.095-0.618,68.028-34.646,83.986-78.839C2191.189,338.37,2121.644,284.731,2095.44,291.723z"/>
			<path style="fill:#FF3B3B;" d="M2279.928,511.675c-4.461-8.938-11.006-16.503-17.226-24.429
				c-20.083-25.59-25.892-31.53-20.083-76.206c3.866-29.729,5.604-47.62-17.912-81.825c-23.01-33.469-18.859-73.214-91.404-64.967
				c-0.615,0.07-78.035-8.247-57.561,29.313c0,0,13.338-5.523,31.359,17.503c18.021,23.025,10.167,28.281,26.201,39.761
				c27.567,19.737,15.552,41.761,7.903,65.015c-10.908,33.162,3.745,54.979-19.664,96.375
				c-15.485,27.382,14.817,78.249,51.942,93.731C2282.089,651.236,2300.009,551.904,2279.928,511.675z"/>
			<path style="fill:#7F3100;" d="M2255.605,1192.189h-2.049c-10.94,0-19.745-8.984-19.525-19.922l2.126-105.984h30.337
				l8.576,104.784C2276,1182.443,2267.02,1192.189,2255.605,1192.189z"/>
			<path style="fill:#995327;" d="M2291.027,1200.133h-5.415c-31.031,1.139-51.974-13.185-51.395-24.811l5.437-109.038h60.093
				c11.661,0,21.71,8.211,24.034,19.639l18.66,91.756C2344.899,1189.773,2321.177,1200.133,2291.027,1200.133z"/>
			<path style="fill:#7F3100;" d="M2234.031,1172.267l2.126-105.984h9.526c11.758,0,21.549,9.021,22.508,20.741l6.879,84.042
				C2277.305,1198.394,2233.481,1199.68,2234.031,1172.267z"/>
		</g>
	</g>
</g>
</svg>
